<?xml version="1.0" encoding="utf-8"?>
<!-- Generator: Adobe Illustrator 19.0.0, SVG Export Plug-In . SVG Version: 6.00 Build 0)  -->
<svg version="1.1" id="Layer_1" xmlns="http://www.w3.org/2000/svg" xmlns:xlink="http://www.w3.org/1999/xlink" x="0px" y="0px"
	 viewBox="0 0 1576 212" style="enable-background:new 0 0 1576 212;" xml:space="preserve">
<style type="text/css">
	.st0{fill:#FFFFFF;}
	.st1{fill:#E76924;}
</style>
<g id="XMLID_7_">
	<path id="XMLID_119_" class="st0" d="M23.8,111.9h18.3c0,1.5,0,2.6,0,3.1c0,5.9,0.6,10.1,1.9,12.6c1.3,2.5,3.8,4.5,7.5,5.8
		c5,1.8,19.3,2.6,42.9,2.6c14.7,0,25-0.3,30.8-1c5.8-0.6,9.9-1.9,12.4-3.8c3.4-2.6,5.2-6.6,5.2-12c0-6.6-2.1-11.1-6.2-13.5
		c-4.1-2.4-11.7-3.6-22.6-3.5c-3.4,0.1-20-0.1-49.6-0.6c-7.7-0.2-13.9-0.8-18.5-1.8c-4.6-1.1-8.5-2.8-11.5-5.2
		c-5.8-4.5-8.7-12.1-8.7-22.8c0-11.3,3.6-19.5,10.9-24.6c3.8-2.7,10.1-4.6,18.8-5.8c8.7-1.2,21.2-1.8,37.6-1.8c18.3,0,31.7,1,40.4,3
		c8.7,2,15,5.5,19.1,10.5c2,2.4,3.3,5,3.8,7.7c0.6,2.7,0.9,7.3,0.9,13.7H139c-0.1-6.6-1.2-11-3.3-13.1c-2.4-2.4-7-4.1-13.8-5.2
		c-6.8-1.1-16.7-1.6-29.6-1.6c-23.5,0-37.8,1.6-42.9,4.9c-3.7,2.4-5.5,6.6-5.5,12.4c0,6,2.1,9.9,6.4,11.8c4.3,1.9,12.9,2.8,25.9,2.5
		c12.8-0.2,29.5,0.1,49.9,0.9c12.4,0.5,21.3,3.2,26.8,8.1c5.5,5,8.2,12.8,8.2,23.6c0,6.5-1,11.8-2.9,15.8c-1.9,4.1-5,7.4-9.3,10
		c-3.7,2.3-9.9,3.9-18.3,4.9c-8.5,1-20.7,1.4-36.8,1.4c-18,0-31.3-0.5-39.9-1.6c-8.7-1.1-15-3-19.1-5.7c-4.1-2.8-7-6.1-8.7-10
		c-1.6-3.9-2.5-9.3-2.5-16.3C23.7,116.7,23.7,114.8,23.8,111.9z"/>
	<path id="XMLID_121_" class="st0" d="M313.6,110.5h17.5c-0.2,13.2-3.2,22.8-9.1,28.9c-4.2,4.4-9.9,7.5-17,9.2
		c-7.1,1.7-17.7,2.6-31.8,2.6c-18.8,0-32.7-0.7-41.7-2.1c-9-1.4-15.9-3.9-20.7-7.4c-10.6-8-15.9-23.3-15.9-46c0-16,2.3-28,6.9-36
		c4.5-7.8,11-13.1,19.5-15.9c8.5-2.8,22.4-4.2,41.7-4.2c17.4,0,30.4,0.9,38.9,2.7c8.5,1.8,14.9,4.9,19.4,9.5
		c3.1,3.2,5.4,6.9,6.8,11.2c1.4,4.2,2.3,9.9,2.6,16.9h-18c-0.2-10.2-3.6-17-10-20.2c-6.5-3.2-19.7-4.9-39.6-4.9
		c-19.6,0-32.4,2-38.4,6c-4,2.6-6.9,6.8-8.7,12.5c-1.8,5.8-2.7,13.7-2.7,23.7c0,9.5,1.1,16.9,3.3,22.4c2.2,5.5,5.6,9.4,10.3,11.7
		c6.4,3.3,20.8,4.9,43.2,4.9c17.6,0,29.2-1.6,34.8-4.9C310.3,127.9,313.3,121,313.6,110.5z"/>
	<path id="XMLID_123_" class="st0" d="M431.4,39.7c17.1,0,29.7,0.5,37.9,1.5c8.1,1,14.5,2.9,19.1,5.7c6.9,4.1,11.8,10,14.9,17.6
		c3.1,7.6,4.6,17.9,4.6,31c0,14.5-1.8,25.6-5.5,33.1c-2.7,5.7-6.2,10.2-10.7,13.4c-4.5,3.2-10.3,5.5-17.6,7
		c-7,1.5-18.7,2.2-35.1,2.2c-15.4,0-27.1-0.5-35-1.5c-7.9-1-14.3-2.9-19.1-5.6c-7.3-3.9-12.5-9.6-15.6-17.2
		c-3.1-7.6-4.7-18.2-4.7-31.9c0-15.3,2.3-26.9,6.8-34.7c4.6-8.1,10.9-13.5,19-16.3C398.4,41.2,412.1,39.8,431.4,39.7z M434.1,54.8
		c-11.4,0-20,0.4-25.8,1.3c-5.8,0.8-10.4,2.4-13.9,4.6c-4.1,2.6-7,6.7-8.8,12.3c-1.8,5.6-2.8,13.3-2.8,23c0,11,1.2,19.2,3.7,24.7
		c2.4,5.5,6.6,9.3,12.6,11.6c6.6,2.5,19.4,3.8,38.4,3.8c12.4,0,21.5-0.5,27.3-1.4c5.8-0.9,10.5-2.6,13.9-5.2c3.8-2.7,6.6-6.7,8.2-12
		c1.6-5.3,2.5-12.9,2.5-22.6c0-11.5-1.3-19.9-3.9-25.2c-2.9-6-7.7-9.9-14.5-11.9C464.3,55.8,452,54.8,434.1,54.8z"/>
	<path id="XMLID_126_" class="st0" d="M544.8,41.1H562v14.7h1.1c2.7-4.9,6.8-8.7,12.3-11.6c3.3-1.7,7.6-2.8,13-3.5
		c5.4-0.6,13.4-1,24.1-1c10.7,0,18.7,0.6,23.9,1.8c5.2,1.2,9.7,3.3,13.5,6.5c7.3,6.3,11,16.6,11,30.8V90h-17.6v-7.8
		c0-6-0.4-10.6-1.2-13.7c-0.8-3.1-2.2-5.6-4.3-7.6c-4.4-4-13.4-6.1-27.2-6.1c-20.7,0-34,2.7-39.8,8.1c-5.8,5.4-8.8,17.6-8.8,36.7
		v50.2h-17.2V41.1z"/>
	<path id="XMLID_128_" class="st0" d="M813.4,116.2h18c-0.3,13-4.9,22.1-13.8,27.2c-8.9,5.2-24.3,7.7-46.3,7.7
		c-18.2,0-32-0.7-41.4-2.1c-9.4-1.4-16.6-3.8-21.4-7.2c-11-7.8-16.5-23.2-16.5-46.2c0-16.1,2.3-28.2,7-36.3
		c4.4-7.7,10.8-12.9,19.2-15.6c8.4-2.7,22.3-4.1,41.9-4.1c18.7,0,32.2,1,40.6,3c8.3,2,15,5.8,19.9,11.5c4.1,4.7,7,10.2,8.5,16.5
		c1.5,6.3,2.4,15.8,2.5,28.7H710.5c0.5,13.5,3.1,22.8,8,27.8c3.3,3.4,8.5,5.8,15.8,7c7.2,1.3,19,1.9,35.2,1.9
		c12.3,0,21.3-0.6,27-1.7c5.7-1.1,10-3.2,12.8-6.3C811.5,125.7,812.9,121.7,813.4,116.2z M812.6,84.6c-0.1-10.6-2.9-18-8.5-22.2
		c-3.7-2.8-8.8-4.8-15.4-5.9c-6.6-1.1-16.3-1.7-29.1-1.7c-11.2,0-19.7,0.5-25.5,1.5c-5.8,1-10.4,2.8-13.7,5.4
		c-5.4,4.2-8.6,11.8-9.4,22.8H812.6z"/>
	<path id="XMLID_131_" class="st0" d="M865,111.9h18.3c0,1.5,0,2.6,0,3.1c0,5.9,0.6,10.1,1.9,12.6c1.3,2.5,3.8,4.5,7.5,5.8
		c5,1.8,19.3,2.6,42.9,2.6c14.7,0,25-0.3,30.8-1c5.8-0.6,9.9-1.9,12.4-3.8c3.4-2.6,5.2-6.6,5.2-12c0-6.6-2.1-11.1-6.2-13.5
		c-4.1-2.4-11.7-3.6-22.6-3.5c-3.4,0.1-20-0.1-49.6-0.6c-7.7-0.2-13.9-0.8-18.5-1.8c-4.6-1.1-8.5-2.8-11.5-5.2
		c-5.8-4.5-8.7-12.1-8.7-22.8c0-11.3,3.6-19.5,10.9-24.6c3.8-2.7,10.1-4.6,18.8-5.8c8.7-1.2,21.2-1.8,37.6-1.8c18.3,0,31.7,1,40.4,3
		c8.7,2,15,5.5,19.1,10.5c2,2.4,3.3,5,3.8,7.7c0.6,2.7,0.9,7.3,0.9,13.7h-18.1c-0.1-6.6-1.2-11-3.3-13.1c-2.4-2.4-7-4.1-13.8-5.2
		c-6.8-1.1-16.7-1.6-29.6-1.6c-23.5,0-37.8,1.6-42.9,4.9c-3.7,2.4-5.5,6.6-5.5,12.4c0,6,2.1,9.9,6.4,11.8c4.3,1.9,12.9,2.8,25.9,2.5
		c12.8-0.2,29.5,0.1,49.9,0.9c12.4,0.5,21.3,3.2,26.8,8.1c5.5,5,8.2,12.8,8.2,23.6c0,6.5-1,11.8-2.9,15.8c-1.9,4.1-5,7.4-9.3,10
		c-3.7,2.3-9.9,3.9-18.3,4.9c-8.5,1-20.7,1.4-36.8,1.4c-18,0-31.3-0.5-39.9-1.6c-8.7-1.1-15-3-19.1-5.7c-4.1-2.8-7-6.1-8.7-10
		c-1.6-3.9-2.5-9.3-2.5-16.3C864.9,116.7,864.9,114.8,865,111.9z"/>
	<path id="XMLID_133_" class="st1" d="M1038.5,196V38.8h39.1v15h2.3c3.5-6.9,8.9-11.6,16.1-14.1c7.2-2.5,18.8-3.8,34.8-3.8
		c14.3,0,25.5,0.9,33.6,2.8c8.1,1.9,14.5,5,19.3,9.3c4.4,4.1,7.4,9.3,9.1,15.9c1.6,6.5,2.4,16.8,2.4,30.9c0,9.4-0.4,16.7-1.1,22
		c-0.7,5.3-2,10.1-3.8,14.4c-3.4,8.1-9.6,13.7-18.5,16.8c-8.9,3.1-23.1,4.6-42.7,4.6c-14.1,0-24.5-1.2-31.1-3.6
		c-6.6-2.4-11.9-6.9-15.9-13.6h-1.9V196H1038.5z M1118.3,67.2c-17.4,0-28.2,1.8-32.2,5.3c-4.1,3.5-6.1,11.2-6.1,23
		c0,6.3,0.6,11.1,1.7,14.4c1.1,3.2,3.1,5.7,6,7.3c4.8,2.8,14.6,4.2,29.3,4.2c15.3,0,25.2-1.5,29.8-4.6c2.6-1.8,4.4-4.4,5.3-7.9
		c1-3.5,1.4-8.9,1.4-16.3c0-6.8-0.6-11.7-1.7-14.7c-1.1-3-3.3-5.3-6.5-7C1140.6,68.5,1131.6,67.3,1118.3,67.2z"/>
	<path id="XMLID_136_" class="st1" d="M1231.4,38.8h39.1v16.7h2.1c3.9-7.1,9.1-12.1,15.6-15.1c6.5-3,15.6-4.5,27.3-4.5
		c16.7,0,28.4,3.3,35,9.9c6.6,6.6,9.9,18.2,9.9,35c0,1-0.1,3.5-0.2,7.4h-39.1c0-6.5-0.7-11-2.1-13.6c-2.7-4.9-9.3-7.3-19.8-7.3
		c-9.9,0-16.8,2.7-21,8c-2.1,2.7-3.5,6-4.2,9.9c-0.7,3.9-1.1,10.1-1.1,18.6v46.1h-41.5V38.8z"/>
	<path id="XMLID_138_" class="st1" d="M1469.5,35.9c18.9,0,33,0.7,42.3,2.2c9.4,1.5,16.7,4.1,21.9,8c5.5,4,9.2,9.2,11.2,15.6
		c2,6.4,3,16.6,3,30.5c0,10.3-0.3,18.1-0.9,23.2c-0.6,5.2-1.6,9.8-3.2,13.9c-4,10.4-12,17-24.2,19.8c-10.1,2.4-26.8,3.6-50.2,3.6
		c-20.7,0-35.5-0.7-44.5-2.2c-8.9-1.5-16.1-4.4-21.4-8.9c-5.1-4.2-8.5-9.7-10.3-16.5c-1.7-6.8-2.6-18.3-2.6-34.4
		c0-9.2,0.4-16.1,1.1-20.9c0.7-4.8,2.1-9.1,4.2-13.1c4.2-8.1,11.3-13.6,21.3-16.4C1427.5,37.4,1444.8,36,1469.5,35.9z M1469.8,67.2
		c-13.8,0-23,1.1-27.8,3.2c-3.5,1.6-6,4.3-7.4,8c-1.5,3.7-2.2,9.3-2.2,16.6c0,7.3,0.6,12.5,1.8,15.6c1.2,3.1,3.6,5.5,7,7.1
		c5.3,2.4,14.8,3.7,28.5,3.7c15.7,0,25.8-1.6,30.2-4.9c4.4-3.3,6.6-10.8,6.6-22.5c0-7.3-0.7-12.7-2.1-16c-1.4-3.4-3.9-5.8-7.4-7.3
		C1491.7,68.3,1482.7,67.2,1469.8,67.2z"/>
</g>
</svg>
