<?xml version="1.0" encoding="utf-8"?>
<!-- Generator: Adobe Illustrator 19.0.0, SVG Export Plug-In . SVG Version: 6.00 Build 0)  -->
<svg version="1.1" id="Layer_1" xmlns="http://www.w3.org/2000/svg" xmlns:xlink="http://www.w3.org/1999/xlink" x="0px" y="0px"
	 viewBox="0 0 1576 212" style="enable-background:new 0 0 1576 212;" xml:space="preserve">
<style type="text/css">
	.st0{fill:#090909;}
</style>
<g id="XMLID_10_">
	<path id="XMLID_2_" class="st0" d="M23.1,108.9h18.4c0,1.5,0,2.6,0,3.1c0,5.9,0.6,10.1,1.9,12.7c1.3,2.5,3.8,4.5,7.5,5.9
		c5,1.8,19.3,2.6,43.1,2.6c14.8,0,25.1-0.3,30.9-1c5.8-0.7,10-1.9,12.5-3.9c3.5-2.6,5.2-6.6,5.2-12.1c0-6.6-2.1-11.1-6.2-13.5
		c-4.1-2.4-11.7-3.6-22.7-3.5c-3.5,0.1-20.1-0.1-49.8-0.6c-7.8-0.2-13.9-0.8-18.6-1.8c-4.6-1.1-8.5-2.8-11.6-5.2
		C27.9,87.1,25,79.5,25,68.8c0-11.4,3.6-19.6,10.9-24.7c3.8-2.7,10.1-4.6,18.9-5.8c8.7-1.2,21.3-1.8,37.8-1.8c18.3,0,31.9,1,40.6,3
		c8.7,2,15.1,5.5,19.2,10.6c2,2.5,3.3,5,3.9,7.8c0.6,2.7,0.9,7.3,0.9,13.8h-18.2c-0.1-6.7-1.2-11.1-3.3-13.1
		c-2.4-2.4-7-4.1-13.8-5.2c-6.8-1.1-16.7-1.6-29.7-1.6c-23.6,0-38,1.7-43.1,5c-3.7,2.5-5.5,6.6-5.5,12.4c0,6,2.1,9.9,6.4,11.9
		c4.3,1.9,13,2.8,26,2.5c12.9-0.2,29.6,0.1,50.1,0.9c12.4,0.5,21.4,3.2,26.9,8.2c5.5,5,8.2,12.9,8.2,23.7c0,6.5-1,11.8-2.9,15.9
		c-1.9,4.1-5,7.4-9.3,10c-3.8,2.3-9.9,3.9-18.4,4.9c-8.5,1-20.8,1.4-36.9,1.4c-18,0-31.4-0.5-40.1-1.6c-8.7-1.1-15.1-3-19.2-5.8
		c-4.1-2.8-7-6.1-8.7-10c-1.7-3.9-2.5-9.4-2.5-16.3C23,113.8,23,111.9,23.1,108.9z"/>
	<path id="XMLID_6_" class="st0" d="M314.3,107.6h17.6c-0.2,13.3-3.3,22.9-9.1,29c-4.2,4.5-9.9,7.5-17.1,9.3
		c-7.2,1.7-17.8,2.6-31.9,2.6c-18.9,0-32.8-0.7-41.9-2.1c-9.1-1.4-16-3.9-20.8-7.5c-10.7-8.1-16-23.4-16-46.2
		c0-16,2.3-28.1,6.9-36.1c4.5-7.8,11.1-13.1,19.6-15.9c8.5-2.8,22.5-4.2,41.9-4.2c17.5,0,30.5,0.9,39,2.7c8.5,1.8,15,5,19.5,9.5
		c3.1,3.2,5.4,7,6.8,11.2c1.4,4.3,2.3,9.9,2.6,17h-18.1c-0.2-10.3-3.6-17.1-10.1-20.3c-6.5-3.3-19.7-4.9-39.8-4.9
		c-19.6,0-32.5,2-38.6,6c-4,2.6-6.9,6.8-8.7,12.6c-1.8,5.8-2.7,13.7-2.7,23.8c0,9.5,1.1,17,3.3,22.5c2.2,5.5,5.6,9.4,10.3,11.8
		c6.4,3.3,20.9,4.9,43.4,4.9c17.7,0,29.4-1.6,34.9-4.9C310.9,125.1,313.9,118.2,314.3,107.6z"/>
	<path id="XMLID_12_" class="st0" d="M432.5,36.4c17.2,0,29.9,0.5,38,1.6c8.2,1,14.6,2.9,19.2,5.7c6.9,4.1,11.9,10,15,17.7
		c3.1,7.6,4.6,18,4.6,31.1c0,14.6-1.8,25.7-5.5,33.3c-2.7,5.8-6.3,10.2-10.8,13.5c-4.5,3.2-10.4,5.6-17.7,7
		c-7.1,1.5-18.8,2.2-35.2,2.2c-15.5,0-27.2-0.5-35.1-1.6c-7.9-1-14.3-2.9-19.2-5.6c-7.3-3.9-12.5-9.7-15.7-17.3
		c-3.1-7.6-4.7-18.3-4.7-32.1c0-15.3,2.3-27,6.8-34.9c4.6-8.1,11-13.6,19.1-16.3C399.4,37.9,413.2,36.5,432.5,36.4z M435.3,51.6
		c-11.4,0-20.1,0.4-25.9,1.3c-5.8,0.8-10.5,2.4-13.9,4.6c-4.1,2.6-7,6.7-8.9,12.4c-1.8,5.6-2.8,13.3-2.8,23.1
		c0,11.1,1.2,19.3,3.7,24.8c2.5,5.5,6.7,9.4,12.7,11.7c6.6,2.5,19.5,3.8,38.6,3.8c12.4,0,21.6-0.5,27.5-1.4c5.9-0.9,10.5-2.6,14-5.2
		c3.8-2.7,6.6-6.7,8.2-12.1c1.6-5.4,2.5-12.9,2.5-22.7c0-11.5-1.3-20-3.9-25.3c-2.9-6-7.8-10-14.6-12
		C465.6,52.6,453.2,51.6,435.3,51.6z"/>
	<path id="XMLID_15_" class="st0" d="M546.5,37.8h17.3v14.7h1.2c2.7-4.9,6.8-8.8,12.3-11.6c3.3-1.7,7.7-2.9,13.1-3.5
		c5.4-0.7,13.5-1,24.2-1c10.7,0,18.7,0.6,24,1.8c5.3,1.2,9.8,3.4,13.5,6.5c7.4,6.4,11.1,16.7,11.1,31V87h-17.7v-7.8
		c0-6.1-0.4-10.6-1.2-13.8c-0.8-3.1-2.2-5.7-4.3-7.7c-4.4-4.1-13.5-6.1-27.3-6.1c-20.8,0-34.1,2.7-40,8.1
		c-5.9,5.4-8.8,17.7-8.8,36.9V147h-17.3V37.8z"/>
	<path id="XMLID_17_" class="st0" d="M816.2,113.3h18.1c-0.3,13-4.9,22.2-13.8,27.3c-8.9,5.2-24.4,7.8-46.5,7.8
		c-18.3,0-32.1-0.7-41.6-2.1c-9.5-1.4-16.6-3.8-21.5-7.2c-11.1-7.8-16.6-23.3-16.6-46.4c0-16.2,2.3-28.4,7-36.5
		c4.4-7.7,10.9-13,19.3-15.7c8.4-2.7,22.4-4.1,42.1-4.1c18.8,0,32.4,1,40.7,3c8.4,2,15,5.8,20,11.5c4.1,4.8,7,10.3,8.5,16.6
		c1.5,6.3,2.4,15.9,2.5,28.8H712.8c0.5,13.6,3.1,22.9,8.1,28c3.3,3.5,8.6,5.8,15.8,7.1c7.3,1.3,19.1,1.9,35.4,1.9
		c12.4,0,21.4-0.6,27.2-1.7c5.8-1.2,10.1-3.3,12.9-6.3C814.3,122.8,815.7,118.8,816.2,113.3z M815.4,81.5
		c-0.1-10.7-2.9-18.1-8.5-22.3c-3.7-2.8-8.8-4.8-15.5-5.9c-6.6-1.1-16.4-1.7-29.2-1.7c-11.2,0-19.7,0.5-25.6,1.6
		c-5.9,1-10.5,2.9-13.8,5.5c-5.4,4.2-8.6,11.9-9.4,22.9H815.4z"/>
	<path id="XMLID_20_" class="st0" d="M868,108.9h18.4c0,1.5,0,2.6,0,3.1c0,5.9,0.6,10.1,1.9,12.7c1.3,2.5,3.8,4.5,7.5,5.9
		c5,1.8,19.3,2.6,43.1,2.6c14.8,0,25.1-0.3,30.9-1c5.8-0.7,10-1.9,12.5-3.9c3.5-2.6,5.2-6.6,5.2-12.1c0-6.6-2.1-11.1-6.2-13.5
		c-4.1-2.4-11.7-3.6-22.7-3.5c-3.5,0.1-20.1-0.1-49.8-0.6c-7.8-0.2-13.9-0.8-18.6-1.8c-4.6-1.1-8.5-2.8-11.6-5.2
		c-5.8-4.5-8.7-12.2-8.7-22.9c0-11.4,3.6-19.6,10.9-24.7c3.8-2.7,10.1-4.6,18.9-5.8c8.7-1.2,21.3-1.8,37.8-1.8c18.3,0,31.9,1,40.6,3
		c8.7,2,15.1,5.5,19.2,10.6c2,2.5,3.3,5,3.9,7.8c0.6,2.7,0.9,7.3,0.9,13.8h-18.2c-0.1-6.7-1.2-11.1-3.3-13.1
		c-2.4-2.4-7-4.1-13.8-5.2c-6.8-1.1-16.7-1.6-29.7-1.6c-23.6,0-38,1.7-43.1,5c-3.7,2.5-5.5,6.6-5.5,12.4c0,6,2.1,9.9,6.4,11.9
		c4.3,1.9,13,2.8,26,2.5c12.9-0.2,29.6,0.1,50.1,0.9c12.4,0.5,21.4,3.2,26.9,8.2c5.5,5,8.2,12.9,8.2,23.7c0,6.5-1,11.8-2.9,15.9
		c-1.9,4.1-5,7.4-9.3,10c-3.8,2.3-9.9,3.9-18.4,4.9c-8.5,1-20.8,1.4-36.9,1.4c-18,0-31.4-0.5-40.1-1.6c-8.7-1.1-15.1-3-19.2-5.8
		c-4.1-2.8-7-6.1-8.7-10c-1.7-3.9-2.5-9.4-2.5-16.3C867.9,113.8,868,111.9,868,108.9z"/>
	<path id="XMLID_22_" class="st0" d="M1042.3,193.4V35.5h39.3v15.1h2.3c3.5-6.9,8.9-11.6,16.2-14.2c7.3-2.5,18.9-3.8,34.9-3.8
		c14.3,0,25.6,0.9,33.7,2.8c8.1,1.9,14.6,5,19.3,9.4c4.4,4.1,7.5,9.4,9.1,15.9c1.6,6.6,2.4,16.9,2.4,31c0,9.4-0.4,16.8-1.1,22.1
		c-0.7,5.3-2,10.1-3.9,14.5c-3.5,8.1-9.6,13.8-18.5,16.9c-8.9,3.1-23.2,4.7-42.9,4.7c-14.2,0-24.6-1.2-31.2-3.6
		c-6.6-2.4-11.9-7-16-13.6h-2v60.8H1042.3z M1122.5,64c-17.5,0-28.3,1.8-32.3,5.3c-4.1,3.5-6.1,11.2-6.1,23.1
		c0,6.4,0.6,11.2,1.7,14.4c1.2,3.3,3.1,5.7,6,7.3c4.8,2.8,14.7,4.3,29.5,4.3c15.3,0,25.3-1.5,29.9-4.6c2.6-1.8,4.4-4.4,5.4-7.9
		c1-3.5,1.4-9,1.4-16.4c0-6.8-0.6-11.7-1.7-14.7c-1.2-3-3.3-5.3-6.6-7C1144.9,65.4,1135.8,64.1,1122.5,64z"/>
	<path id="XMLID_25_" class="st0" d="M1236.1,35.5h39.3v16.8h2.1c3.9-7.1,9.2-12.2,15.7-15.2c6.6-3,15.7-4.5,27.5-4.5
		c16.8,0,28.5,3.3,35.1,9.9c6.6,6.6,9.9,18.3,9.9,35.1c0,1-0.1,3.5-0.2,7.5h-39.3c0-6.5-0.7-11.1-2.1-13.7
		c-2.7-4.9-9.3-7.4-19.9-7.4c-9.9,0-16.9,2.7-21.1,8.1c-2.1,2.7-3.5,6-4.2,10c-0.7,4-1.1,10.2-1.1,18.7V147h-41.7V35.5z"/>
	<path id="XMLID_27_" class="st0" d="M1475.2,32.6c19,0,33.1,0.7,42.5,2.2c9.4,1.5,16.7,4.2,22,8c5.5,4,9.3,9.2,11.3,15.7
		c2,6.4,3,16.7,3,30.6c0,10.4-0.3,18.1-0.9,23.3c-0.6,5.2-1.6,9.8-3.2,14c-4,10.4-12.1,17.1-24.3,19.9c-10.1,2.4-26.9,3.6-50.4,3.6
		c-20.8,0-35.7-0.7-44.7-2.2c-9-1.5-16.2-4.5-21.5-8.9c-5.1-4.2-8.6-9.7-10.3-16.6c-1.7-6.8-2.6-18.3-2.6-34.5
		c0-9.2,0.4-16.2,1.1-21c0.7-4.8,2.1-9.2,4.2-13.2c4.2-8.1,11.4-13.6,21.4-16.5C1433,34.2,1450.4,32.7,1475.2,32.6z M1475.5,64
		c-13.8,0-23.1,1.1-28,3.2c-3.5,1.6-6,4.3-7.5,8.1c-1.5,3.8-2.2,9.3-2.2,16.7c0,7.3,0.6,12.5,1.8,15.7c1.2,3.1,3.6,5.5,7,7.1
		c5.3,2.5,14.8,3.7,28.7,3.7c15.8,0,25.9-1.6,30.3-4.9c4.4-3.3,6.6-10.8,6.6-22.6c0-7.4-0.7-12.7-2.1-16.1c-1.4-3.4-3.9-5.8-7.5-7.4
		C1497.5,65.2,1488.4,64,1475.5,64z"/>
</g>
</svg>
